<?xml version="1.0" standalone="no"?><!DOCTYPE svg PUBLIC "-//W3C//DTD SVG 1.1//EN" "http://www.w3.org/Graphics/SVG/1.1/DTD/svg11.dtd"><svg t="1749793955903" class="icon" viewBox="0 0 1024 1024" version="1.1" xmlns="http://www.w3.org/2000/svg" p-id="32049" xmlns:xlink="http://www.w3.org/1999/xlink" width="32" height="32"><path d="M576.2 80.8l287.5 158.6c43.1 23.9 69.8 69.3 69.7 118.5v308.2c0.1 49.3-26.6 94.7-69.7 118.5L576.2 943.2c-40 22.1-88.5 22.1-128.5 0L160.3 784.6c-43.1-23.9-69.8-69.3-69.7-118.5V357.9c-0.1-49.3 26.6-94.7 69.7-118.5L447.8 80.8c39.9-22 88.5-22 128.4 0z m-90.6 69.8L198.1 309.1c-17.8 9.8-28.8 28.5-28.7 48.8v308.2c0 20.3 11 39 28.7 48.8l287.5 158.5c16.4 9.1 36.4 9.1 52.8 0l287.5-158.5c17.8-9.8 28.8-28.5 28.7-48.8V357.9c0-20.3-11-39-28.7-48.8L538.4 150.6c-16.4-9.1-36.4-9.1-52.8 0z m279.3 225.6c10.4 19.3 3.3 43.3-15.8 53.9L555.4 535.7v206.8c0 21.7-17.6 39.4-39.4 39.4s-39.4-17.6-39.4-39.4V535.7L283.1 430.1c-19.1-10.6-26.2-34.6-15.8-53.9 4.9-9.2 13.3-16.1 23.4-19.1s20.8-1.9 30 3.1l195.5 106.6 195.6-106.7c9.2-5 20-6.1 30.1-3.1 10 3 18.4 9.9 23.3 19.2h-0.3z" p-id="32050"></path></svg>