<?xml version="1.0" standalone="no"?><!DOCTYPE svg PUBLIC "-//W3C//DTD SVG 1.1//EN" "http://www.w3.org/Graphics/SVG/1.1/DTD/svg11.dtd"><svg t="1749787445132" class="icon" viewBox="0 0 1024 1024" version="1.1" xmlns="http://www.w3.org/2000/svg" p-id="15999" xmlns:xlink="http://www.w3.org/1999/xlink" width="32" height="32"><path d="M70.8 83.2l2-2.8 3.6-4.1 2.5-2.3 3.4-2.6 3.9-2.3 2.6-1.2c0.8-0.4 1.7-0.7 2.5-1l4.3-1.2 3.7-0.7 6.2-0.4 3.4 0.2 4.6 0.8 591 136.4c15.5 3.6 27.4 16.1 30.2 31.8h0.2l24.8 283.6 19.6-19.6c15.5-15.5 40.7-15.5 56.2 0l112.4 112.5c15.5 15.5 15.5 40.7 0 56.2L666.6 947.7c-7.5 7.5-17.6 11.7-28.1 11.7-10.6 0-20.7-4.2-28.1-11.7L498 835.3c-7.5-7.5-11.7-17.6-11.7-28.1 0-10.6 4.2-20.7 11.7-28.1l19.5-19.5-283.6-24.8v-0.2l-1.5-0.2c-15-3.3-26.8-14.9-30.2-29.9l-136.5-591c-0.7-3-1-6.1-1-9.1l0.1-2.1 0.2-3.3 0.7-3.5 1-3.5 1.9-4.7 2.2-4.1z m736.4 499.1L582.3 807.2l56.2 56.2 224.9-224.9-56.2-56.2z m-576.7-408l183.1 183.1c1.6 1.6 3 3.3 4.3 5 52.4-25.3 115.4-9.1 149.1 38.3 33.7 47.4 28.2 112.3-12.9 153.4-41.2 41.1-106 46.6-153.4 12.8-47.4-33.7-63.6-96.8-38.2-149.2-1.8-1.2-3.5-2.7-5.1-4.2l-183-183 98.7 427.7L590.9 686l95.2-95.3-27.8-317.8-427.8-98.6z m211.3 267.4c-10.3 10-14.5 24.8-10.8 38.7 3.6 13.9 14.5 24.8 28.4 28.4 13.9 3.6 28.7-0.5 38.7-10.8 15.1-15.6 14.8-40.4-0.5-55.7-15.4-15.4-40.2-15.7-55.8-0.6z" p-id="16000"></path></svg>