<?xml version="1.0" standalone="no"?><!DOCTYPE svg PUBLIC "-//W3C//DTD SVG 1.1//EN" "http://www.w3.org/Graphics/SVG/1.1/DTD/svg11.dtd"><svg t="1749794176350" class="icon" viewBox="0 0 1024 1024" version="1.1" xmlns="http://www.w3.org/2000/svg" p-id="32196" xmlns:xlink="http://www.w3.org/1999/xlink" width="32" height="32"><path d="M511.9 66c33.6 0 65.4 15.5 86.1 42s28.1 61 20 93.7l244.2 142.7v293.4c46.3 10.5 80.6 49.7 84.8 97 4.2 47.3-22.6 91.9-66.3 110.4-43.7 18.5-94.4 6.7-125.4-29.3L511.9 958 268.6 815.8c-31 35.9-81.6 47.7-125.3 29.2-43.7-18.5-70.5-63.1-66.3-110.3 4.2-47.2 38.4-86.4 84.6-96.9V344.4l244.2-142.7c-8.1-32.6-0.7-67.2 20-93.7s52.5-42 86.1-42z m139.9 599.5l-139.9 80.8-139.5-80.5-81.5 48.2c5 17.2 5.7 35.4 2 53L512 895l219-128c-3.7-17.6-3-35.8 2-53.1l-79.9-47.4-1.3-1z m186.2 24c-19.5 0-36.6 10.2-46.4 25.5-0.2 0.5-0.4 1-0.7 1.5l-1.1 1.5c-11.9 21.7-7.8 48.6 10 65.8 17.8 17.2 44.8 20.4 66.1 7.8 21.3-12.6 31.5-37.9 25-61.7-6.5-23.8-28.2-40.4-52.9-40.4z m-652.1 0c-30.3 0-54.9 24.6-54.9 54.9 0 30.3 24.6 54.9 54.9 54.9s54.9-24.6 54.9-54.9c0-30.3-24.6-54.9-54.9-54.9z m326-269.4l-114 65.8v131.7l114 65.8 114-65.8V485.9l-114-65.8z m-80.2-170.6L216 375.5v263.7c17.8 5.1 34.1 14.7 47.2 27.8l80.3-47.4V454.5l141.3-81.6v-91.7c-20.5-5.2-38.9-16.2-53.1-31.7z m160.5 0c-14 15.2-32.3 26.4-53 31.6v91.8l141.2 81.6v164.8l0.4 0.2 80 47.4c12.9-12.9 29-22.5 47-27.7V375.6L592.2 249.5z m-80.3-129.1c-19.9-0.5-38.6 9.9-48.7 27s-10.1 38.5 0 55.7 28.7 27.5 48.7 27c29.8-0.7 53.5-25.1 53.5-54.9s-23.7-54-53.5-54.8z" p-id="32197"></path></svg>