<?xml version="1.0" standalone="no"?><!DOCTYPE svg PUBLIC "-//W3C//DTD SVG 1.1//EN" "http://www.w3.org/Graphics/SVG/1.1/DTD/svg11.dtd"><svg t="1749456371383" class="icon" viewBox="0 0 1024 1024" version="1.1" xmlns="http://www.w3.org/2000/svg" p-id="15039" xmlns:xlink="http://www.w3.org/1999/xlink" width="32" height="32"><path d="M68.6 571.7c-2.6-19.5-3.9-39.4-3.9-59.7C64.7 264.9 264.9 64.7 512 64.7c192.4 0 356.4 121.5 419.6 291.9H801C745.6 253.8 637 184 512 184c-160.8 0-294.6 115.7-322.6 268.4h740.1v0.1h25.9c2.6 19.5 3.9 39.4 3.9 59.6 0 247.1-200.3 447.3-447.3 447.3-192.4 0-356.4-121.4-419.6-291.8H223C278.5 770.2 387.1 840 512 840c160.8 0 294.6-115.7 322.6-268.4l-766 0.1z" p-id="15040"></path></svg>