<?xml version="1.0" standalone="no"?><!DOCTYPE svg PUBLIC "-//W3C//DTD SVG 1.1//EN" "http://www.w3.org/Graphics/SVG/1.1/DTD/svg11.dtd"><svg t="1749787440090" class="icon" viewBox="0 0 1024 1024" version="1.1" xmlns="http://www.w3.org/2000/svg" p-id="15852" xmlns:xlink="http://www.w3.org/1999/xlink" width="32" height="32"><path d="M437.4 847.5v74.6c0 20.6-16.7 37.3-37.3 37.3s-37.3-16.7-37.3-37.3v-74.6h-74.6c-61.8 0-111.8-50.1-111.8-111.8V623.8h-74.6c-20.6 0-37.3-16.7-37.3-37.3 0-20.6 16.7-37.3 37.3-37.3h74.6V437.4h-74.6c-13.3 0-25.6-7.1-32.3-18.6s-6.7-25.7 0-37.3 19-18.6 32.3-18.6h74.6v-74.6c0-61.8 50.1-111.8 111.8-111.8h74.6v-74.6c0-20.6 16.7-37.3 37.3-37.3s37.3 16.7 37.3 37.3v74.6h149.1v-74.6c0-20.6 16.7-37.3 37.3-37.3s37.3 16.7 37.3 37.3v74.6h74.6c61.8 0 111.8 50.1 111.8 111.8v74.6h74.6c20.6 0 37.3 16.7 37.3 37.3s-16.7 37.3-37.3 37.3h-74.6v111.8h74.6c20.6 0 37.3 16.7 37.3 37.3 0 20.6-16.7 37.3-37.3 37.3h-74.6v111.8c0 61.8-50.1 111.8-111.8 111.8h-74.6v74.6c0 20.6-16.7 37.3-37.3 37.3s-37.3-16.7-37.3-37.3v-74.6H437.4z m298.3-596.4H288.3c-18.9 0-34.8 14.1-37 32.9l-0.3 4.4v447.3c0 18.9 14.1 34.8 32.9 37l4.4 0.3h447.3c18.9 0 34.8-14.1 37-32.9l0.3-4.4V288.3c0-20.6-16.6-37.2-37.2-37.2zM623.8 362.9c20.6 0 37.3 16.7 37.3 37.3v223.7c0 20.6-16.7 37.3-37.3 37.3H400.2c-20.6 0-37.3-16.7-37.3-37.3V400.2c0-20.6 16.7-37.3 37.3-37.3h223.6z m-37.2 74.5H437.4v149.1h149.1V437.4h0.1z" p-id="15853"></path></svg>