<?xml version="1.0" standalone="no"?><!DOCTYPE svg PUBLIC "-//W3C//DTD SVG 1.1//EN" "http://www.w3.org/Graphics/SVG/1.1/DTD/svg11.dtd"><svg t="1749787450113" class="icon" viewBox="0 0 1024 1024" version="1.1" xmlns="http://www.w3.org/2000/svg" p-id="16146" xmlns:xlink="http://www.w3.org/1999/xlink" width="32" height="32"><path d="M910.5 365.5l0.3 0.4c5.6 7.2 8.7 16 8.6 25.1v447c0 67.5-54.7 122.2-122.2 122.2H226.8c-67.5 0-122.2-54.7-122.2-122.2V390.2c0-1 0.1-2 0.2-3l-0.2 3.8c0-9.1 3.1-18 8.6-25.1 2-2.4 4.2-4.7 6.6-6.6l0.4-0.3L486.9 72.4c14.7-11.5 35.4-11.5 50.1 0l366.7 286.5 0.4 0.3c2.5 1.9 4.6 4 6.4 6.3zM512 156.2L186 410.9V838c0 20.4 15 37.6 35.2 40.3l5.5 0.4h122.2V513.3c0-22.5 18.2-40.7 40.7-40.7h244.5c22.5 0 40.7 18.2 40.7 40.7v365.4H797c20.4 0 37.6-15 40.3-35.2l0.4-5.5V410.9L512 156.2zM593.5 554h-163v324.6h163V554z" p-id="16147"></path></svg>