<?xml version="1.0" standalone="no"?><!DOCTYPE svg PUBLIC "-//W3C//DTD SVG 1.1//EN" "http://www.w3.org/Graphics/SVG/1.1/DTD/svg11.dtd"><svg t="1749787424502" class="icon" viewBox="0 0 1024 1024" version="1.1" xmlns="http://www.w3.org/2000/svg" p-id="15705" xmlns:xlink="http://www.w3.org/1999/xlink" width="32" height="32"><path d="M512 64.7c10 0 19.3 3.7 26.4 9.7 1.3 0.7 2.6 1.5 3.9 2.4L942 356.7l0.7 0.5c1 0.7 1.9 1.5 2.8 2.3l-3.6-2.8c5.4 3.8 9.9 9 12.9 14.9l0.3 0.6c2.7 5.6 4.1 11.7 4.1 17.9v244c0 14.9-8.2 28.7-21.3 35.8-0.9 0.8-1.9 1.6-3 2.3L535.3 952l-0.3 0.2c-1 0.7-2.1 1.4-3.2 2l-0.8 0.5c-0.2 0.1-0.4 0.2-0.5 0.2l-0.6 0.3c-5.9 2.9-12.4 4.3-19 4.1h1.1c-6.2 0-12.3-1.4-17.9-4.1l-0.6-0.3-0.3-0.2c-1.3-0.7-2.6-1.4-3.9-2.3l-0.4-0.3c-0.1-0.1-0.2-0.1-0.3-0.2L88.9 672.1l-2.9-2.3C72.9 662.7 64.7 649 64.7 634V390c0-6.4 1.5-12.5 4.1-17.9l0.3-0.6c3-5.9 7.4-11 12.9-14.8L481.7 76.8l3.9-2.4c7.4-6.3 16.7-9.8 26.4-9.7zM337.7 561.6l-132.4 92.7 266 186.3V655.1l-133.6-93.5z m348.5 0l-133.5 93.5v185.4l265.9-186.2-132.4-92.7zM878 427.3L757.1 512 878 596.6V427.3z m-732 0.1v169.2L266.8 512 146 427.4z m366 12.2L408.6 512 512 584.3 615.3 512 512 439.6z m-40.7-256.3l-266 186.3 132.5 92.7 133.6-93.6V183.3z m81.4 0.1v185.4l133.5 93.5 132.4-92.7-265.9-186.2z" p-id="15706"></path></svg>