<?xml version="1.0" standalone="no"?><!DOCTYPE svg PUBLIC "-//W3C//DTD SVG 1.1//EN" "http://www.w3.org/Graphics/SVG/1.1/DTD/svg11.dtd"><svg t="1749787456596" class="icon" viewBox="0 0 1024 1024" version="1.1" xmlns="http://www.w3.org/2000/svg" p-id="16293" xmlns:xlink="http://www.w3.org/1999/xlink" width="32" height="32"><path d="M715.3 64.7c134.8 0 244 109.2 244 244v406.7c0 134.8-109.2 244-244 244H308.7c-134.8 0-244-109.2-244-244V308.7c0-134.8 109.2-244 244-244h406.6z m0 81.3H308.7c-86.7 0-158.1 68-162.5 154.5l-0.2 8.1v406.7c0 86.7 68 158.1 154.5 162.5l8.1 0.2h406.7c86.7 0 158.1-68 162.5-154.5l0.2-8.1V308.7c0-89.9-72.8-162.7-162.7-162.7zM512 308.7c112.3 0 203.3 91 203.3 203.3s-91 203.3-203.3 203.3-203.3-91-203.3-203.3 91-203.3 203.3-203.3z m0 81.3c-67.4 0-122 54.6-122 122s54.6 122 122 122 122-54.6 122-122-54.6-122-122-122z m223.7-142.3c14.5 0 28 7.7 35.2 20.3s7.3 28.1 0 40.7-20.7 20.3-35.2 20.3c-22.5 0-40.7-18.2-40.7-40.7 0-22.4 18.2-40.6 40.7-40.6z" p-id="16294"></path></svg>