<?xml version="1.0" standalone="no"?><!DOCTYPE svg PUBLIC "-//W3C//DTD SVG 1.1//EN" "http://www.w3.org/Graphics/SVG/1.1/DTD/svg11.dtd"><svg t="1749787748498" class="icon" viewBox="0 0 1024 1024" version="1.1" xmlns="http://www.w3.org/2000/svg" p-id="16440" xmlns:xlink="http://www.w3.org/1999/xlink" width="32" height="32"><path d="M953 941.2c-6.9 10.7-18.8 17.1-31.6 17H101.6c-12.8 0.1-24.7-6.3-31.6-17-6.5-10.4-6.5-23.7 0-34.1 6.8-10.8 18.8-17.4 31.6-17.3h819.7c12.8-0.2 24.7 6.3 31.6 17 6.7 10.5 6.7 23.9 0.1 34.4zM535.1 675.5c-38.2 34.9-86.3 57.1-137.6 63.8l-88.9 7.4c-43.1 3.5-66.7 5.5-71.2 5.5-9.1 0-17.9-3.6-24.4-10-11.6-11.6-11.6-11.6-4.7-95.4l7.4-88.8c6.7-51.3 29-99.4 63.9-137.6l327-326.7c40.6-38.5 104.3-38.5 145 0l110.6 110.5c39.8 39.9 39.8 104.6 0 144.5L535.1 675.5z m278.6-423.2L703 141.8c-13.4-13.1-34.8-13.1-48.2 0L328 468.4c-23.7 26.7-39 59.7-44 95l-7.5 88.7-2.3 28.8 28.8-2.3 88.9-7.4c35.3-5.1 68.3-20.4 95-44l326.9-326.6c13-13.5 13-34.9-0.1-48.3z m0 0" p-id="16441"></path></svg>